<?xml version="1.0" standalone="no"?>
<!DOCTYPE svg PUBLIC "-//W3C//DTD SVG 20010904//EN"
 "http://www.w3.org/TR/2001/REC-SVG-20010904/DTD/svg10.dtd">
<svg version="1.0" xmlns="http://www.w3.org/2000/svg"
 width="260.000000pt" height="260.000000pt" viewBox="0 0 260.000000 260.000000"
 preserveAspectRatio="xMidYMid meet">
<metadata>
Created by potrace 1.11, written by Peter Selinger 2001-2013
</metadata>
<g transform="translate(0.000000,260.000000) scale(0.100000,-0.100000)"
fill="#000000" stroke="none">
<path d="M999 2366 c-3 -3 -28 -8 -55 -10 -27 -3 -50 -6 -51 -7 -2 -1 -11 -2
-20 -4 -18 -2 -34 -7 -81 -26 -13 -5 -32 -9 -42 -9 -11 0 -20 -4 -20 -8 0 -5
-6 -9 -12 -10 -39 -3 -54 -8 -61 -20 -5 -7 -12 -10 -18 -7 -5 4 -9 1 -9 -4 0
-6 -7 -11 -15 -11 -8 0 -15 -4 -15 -10 0 -5 -5 -10 -12 -10 -6 0 -23 -10 -36
-22 -14 -13 -22 -16 -18 -8 4 8 -2 4 -13 -10 -11 -14 -21 -22 -21 -18 0 4 -27
-18 -59 -50 -32 -31 -57 -59 -56 -61 2 -2 -6 -13 -18 -25 -24 -23 -55 -71 -64
-98 -3 -10 -10 -18 -15 -18 -6 0 -8 -7 -4 -15 3 -8 2 -15 -3 -15 -9 0 -26 -48
-23 -62 1 -5 -3 -8 -9 -8 -5 0 -7 -4 -4 -10 3 -5 1 -10 -4 -10 -6 0 -11 -13
-11 -28 0 -16 -3 -32 -7 -36 -10 -10 -14 -42 -18 -148 -1 -54 0 -98 4 -98 4 0
6 -14 5 -30 -1 -17 2 -33 7 -36 5 -3 7 -10 3 -15 -3 -5 1 -23 10 -39 10 -21
11 -30 3 -30 -7 0 -6 -4 3 -10 11 -7 12 -12 3 -21 -6 -6 -9 -18 -6 -25 3 -8 0
-14 -6 -14 -6 0 -8 -7 -5 -15 4 -8 2 -15 -4 -15 -6 0 -9 -8 -7 -17 1 -10 -2
-24 -8 -30 -5 -7 -6 -13 -3 -13 4 0 2 -9 -4 -19 -7 -14 -7 -22 1 -26 6 -5 4
-12 -8 -22 -10 -8 -12 -12 -6 -8 14 7 18 -11 6 -18 -10 -6 -9 -85 2 -157 4
-30 8 -65 8 -77 1 -13 4 -23 8 -23 4 0 6 -8 4 -17 -1 -10 2 -27 8 -38 6 -11
10 -24 9 -29 -2 -5 2 -12 8 -16 6 -4 12 -13 14 -21 5 -28 18 -59 25 -59 4 0 8
-10 8 -22 1 -13 7 -24 13 -26 5 -2 10 -10 10 -18 0 -8 5 -14 10 -14 6 0 10 -7
10 -15 0 -8 9 -20 20 -27 11 -7 20 -17 20 -23 1 -5 12 -23 26 -40 15 -16 23
-24 19 -16 -6 9 -4 12 3 7 7 -4 12 -14 12 -23 0 -9 3 -13 7 -10 3 4 19 -7 35
-23 15 -17 33 -30 38 -30 6 0 10 -4 10 -10 0 -5 7 -10 15 -10 8 0 15 -4 15 -8
0 -8 59 -46 73 -47 4 0 11 -5 15 -10 4 -6 16 -12 27 -13 11 -2 22 -7 25 -10 3
-4 14 -9 25 -10 11 -2 25 -8 30 -12 6 -4 24 -9 40 -11 17 -2 36 -7 43 -12 6
-5 12 -6 12 -2 0 4 11 0 25 -9 14 -9 25 -13 25 -8 0 4 15 7 33 6 39 -3 145 -4
170 -2 9 1 17 6 17 12 0 6 5 4 10 -4 5 -8 10 -10 10 -3 0 6 11 10 25 8 14 -1
28 2 31 7 4 6 10 5 15 -3 6 -10 9 -11 9 -1 0 6 9 12 20 12 11 0 20 6 20 13 0
8 4 7 10 -3 7 -12 10 -12 10 -1 0 7 6 11 15 8 8 -4 17 -3 19 2 6 9 75 9 91 0
6 -3 25 -5 43 -5 17 1 32 -2 32 -6 0 -12 322 -9 336 3 11 9 14 8 14 -1 0 -9 7
-8 24 3 17 12 26 13 35 4 8 -8 11 -8 11 2 0 7 6 11 14 8 8 -3 16 -2 18 3 2 6
15 11 31 12 15 1 27 7 27 12 0 5 3 6 7 3 3 -4 17 0 30 8 13 9 23 13 23 10 0
-4 12 2 28 12 15 10 49 29 76 43 27 14 83 59 125 101 87 87 97 99 113 134 6
14 15 25 20 25 5 0 6 5 3 10 -3 6 -1 10 5 10 6 0 9 4 6 8 -3 5 4 23 15 40 10
18 19 39 19 47 0 8 5 15 10 15 6 0 10 6 9 13 -3 14 11 78 20 92 10 16 9 295
-1 289 -6 -4 -9 4 -7 17 1 13 -5 42 -15 64 -10 22 -20 49 -23 60 -10 35 -5
125 7 125 3 0 6 8 7 18 2 46 15 118 23 127 5 6 5 17 1 24 -5 7 -5 28 -1 47 4
18 4 34 -1 36 -5 2 -10 27 -11 56 -1 28 -6 52 -10 52 -4 0 -7 3 -6 8 4 16 -13
82 -22 82 -5 0 -7 7 -4 15 4 8 1 15 -5 15 -6 0 -11 6 -11 14 0 20 -30 73 -62
109 -15 17 -26 33 -25 36 1 3 -26 34 -61 69 -34 34 -62 59 -62 56 0 -4 -8 2
-17 13 -10 11 -38 30 -63 44 -25 13 -47 27 -50 30 -9 10 -96 49 -109 49 -7 0
-10 4 -7 8 3 5 -5 8 -17 7 -12 -1 -27 1 -32 6 -12 9 -56 19 -95 22 -14 1 -30
5 -36 9 -12 8 -164 4 -234 -6 -99 -13 -114 -17 -122 -29 -6 -9 -8 -8 -8 3 0
12 -2 13 -9 1 -5 -7 -14 -10 -20 -7 -6 4 -11 1 -11 -6 0 -9 -3 -9 -10 2 -9 13
-10 13 -10 0 0 -12 -2 -13 -9 -1 -5 7 -14 10 -20 7 -6 -4 -11 -2 -11 4 0 6 -4
8 -10 5 -5 -3 -10 -2 -10 4 0 5 -8 8 -17 6 -10 -1 -22 0 -27 3 -6 3 -30 7 -55
9 -26 1 -78 5 -116 9 -39 3 -73 3 -76 0z m751 -273 c40 -6 100 -27 100 -35 0
-5 4 -7 9 -3 5 3 16 -1 24 -9 8 -8 17 -12 21 -9 3 4 6 1 6 -6 0 -7 5 -9 10 -6
6 3 10 1 10 -4 0 -6 6 -11 13 -11 7 0 20 -8 29 -17 9 -10 29 -27 43 -38 41
-30 75 -68 75 -82 0 -7 5 -13 10 -13 6 0 10 -7 10 -15 0 -8 3 -15 8 -15 8 0
32 -48 32 -66 0 -7 4 -14 10 -16 5 -1 13 -24 16 -49 5 -40 4 -46 -12 -46 -25
0 -45 17 -37 31 4 6 -1 5 -10 -3 -9 -7 -17 -9 -17 -4 0 5 -16 15 -35 23 -19 7
-31 18 -28 23 3 6 2 8 -3 4 -5 -3 -32 5 -59 18 -28 12 -53 21 -57 18 -5 -2 -8
1 -8 7 0 7 -8 9 -20 5 -11 -4 -20 -2 -20 4 0 6 -11 11 -25 11 -15 0 -28 7 -32
18 -3 9 -11 23 -17 30 -5 8 -12 23 -13 35 -2 12 -11 32 -19 45 -12 18 -12 22
-3 16 16 -9 -8 25 -26 38 -5 4 -6 8 -2 8 5 0 -1 16 -13 35 -12 19 -18 35 -13
35 4 0 0 5 -9 11 -9 5 -15 16 -12 24 4 8 10 12 15 9 5 -3 9 0 9 6 0 6 5 8 13
3 6 -4 19 -8 27 -10z m-766 -22 c17 -6 16 -9 -8 -31 -14 -14 -26 -31 -26 -38
0 -7 -7 -15 -15 -18 -8 -4 -13 -9 -10 -14 2 -4 -5 -17 -16 -29 -12 -12 -19
-25 -15 -28 3 -3 -3 -22 -14 -43 -11 -21 -17 -40 -14 -43 3 -3 -2 -17 -11 -31
-15 -22 -20 -24 -33 -14 -13 11 -14 11 -7 -2 15 -24 14 -39 -1 -33 -8 3 -21 0
-29 -7 -8 -6 -19 -9 -24 -6 -5 4 -12 2 -16 -3 -3 -5 -14 -8 -25 -6 -11 2 -20
-1 -20 -7 0 -6 -3 -8 -7 -5 -3 4 -15 0 -25 -10 -10 -9 -18 -12 -18 -8 0 4 -9
0 -20 -10 -11 -10 -20 -15 -20 -10 0 4 -6 2 -14 -4 -15 -12 -67 -11 -60 1 3 4
0 8 -5 8 -6 0 -11 9 -11 21 0 11 5 17 10 14 6 -3 10 1 10 10 0 10 -5 13 -12 9
-7 -4 -5 1 4 12 9 10 19 30 23 44 14 59 179 219 234 227 9 1 17 7 19 12 2 6 8
11 13 11 6 0 7 -6 3 -12 -5 -8 0 -7 11 2 15 13 108 49 125 49 3 0 13 -4 24 -8z
m331 -121 c-3 -5 4 -6 15 -3 11 3 20 0 20 -6 0 -8 5 -9 19 -1 26 13 34 13 25
-2 -6 -10 -4 -10 7 0 13 12 38 18 26 6 -3 -3 5 -16 19 -29 13 -12 24 -30 24
-39 0 -9 4 -16 9 -16 13 0 21 -39 8 -47 -11 -7 -63 -11 -210 -20 -103 -5 -123
3 -104 45 6 15 16 32 22 38 5 6 21 26 35 44 14 18 34 36 45 40 23 8 47 2 40
-10z m233 -413 c2 -10 8 -17 14 -17 6 0 5 -6 -2 -16 -11 -12 -11 -15 0 -12 14
3 14 -2 10 -149 -1 -29 1 -57 5 -63 3 -5 1 -10 -6 -10 -8 0 -8 -5 3 -17 20
-24 18 -139 -2 -135 -11 3 -11 0 1 -14 9 -12 9 -15 2 -10 -7 4 -13 2 -13 -3 0
-7 -19 -8 -52 -4 -29 3 -128 7 -220 7 -98 1 -164 5 -160 10 3 5 -2 6 -12 3
-15 -6 -17 -1 -15 43 2 27 1 52 -2 54 -2 3 -3 47 -1 98 2 51 5 117 6 146 1 40
4 51 15 47 12 -5 12 -3 0 12 -9 11 -10 14 -1 9 6 -4 12 -3 12 3 0 17 60 24
207 26 79 1 145 3 147 6 12 12 61 1 64 -14z m377 -49 c5 4 5 1 1 -5 -5 -9 -1
-13 12 -13 10 0 28 -9 40 -20 12 -12 22 -17 22 -13 0 4 5 0 11 -9 5 -10 17
-18 25 -18 8 0 12 -4 9 -10 -3 -5 0 -10 8 -10 11 0 26 -20 44 -61 7 -16 -131
-157 -148 -152 -5 2 -9 -2 -9 -8 0 -8 -5 -7 -15 1 -13 11 -14 10 -9 -5 5 -12
4 -16 -3 -12 -6 4 -13 1 -16 -5 -3 -10 -8 -10 -21 1 -9 8 -15 20 -12 28 3 8 2
12 -3 9 -5 -4 -10 52 -10 126 -1 73 -4 134 -6 137 -3 2 0 10 6 18 6 7 8 13 3
14 -5 0 0 4 11 8 11 5 27 5 36 0 9 -5 20 -5 24 -1z m-1105 -30 c0 -5 4 -7 8
-4 4 2 7 -61 6 -142 -1 -197 1 -183 -34 -180 -16 1 -30 6 -30 11 0 4 -5 5 -12
1 -6 -4 -16 0 -22 8 -12 16 -46 32 -60 29 -5 -1 -3 5 4 14 11 13 10 15 -1 10
-16 -6 -89 53 -89 72 0 6 -6 14 -12 16 -8 3 -7 6 4 6 9 1 20 5 23 11 3 6 -1 7
-10 4 -11 -5 -14 -2 -9 10 3 9 11 16 17 16 6 0 8 3 4 6 -6 6 40 54 52 54 4 0
13 -6 20 -12 11 -11 12 -9 2 9 -8 17 -8 22 5 27 10 4 13 1 9 -7 -4 -6 -1 -5 7
4 29 35 118 63 118 37z m1384 -467 c13 -5 19 -19 21 -44 1 -20 -1 -37 -4 -37
-3 0 -7 -13 -7 -29 -2 -33 -25 -91 -36 -91 -5 0 -7 -3 -6 -7 4 -15 -13 -53
-23 -53 -6 0 -8 -4 -5 -8 3 -5 -6 -20 -20 -35 -13 -14 -24 -29 -24 -33 0 -4
-11 -17 -25 -30 -14 -13 -25 -20 -25 -17 0 3 -12 -6 -27 -21 -14 -15 -32 -25
-40 -22 -7 3 -12 0 -10 -7 1 -7 -4 -11 -10 -9 -7 1 -13 -3 -13 -8 0 -8 -45
-32 -57 -31 -1 0 -14 -6 -29 -14 -15 -7 -33 -11 -42 -8 -10 4 -13 2 -8 -5 4
-7 -1 -10 -14 -7 -11 2 -22 0 -25 -6 -8 -12 -75 -12 -94 0 -12 8 -12 12 -2 25
8 9 10 16 5 16 -5 0 -1 7 10 15 10 7 15 18 12 23 -3 6 -3 12 2 14 7 3 51 73
85 134 9 17 14 34 10 38 -3 3 -1 6 4 6 6 0 10 11 8 25 -1 14 2 25 6 25 5 0 9
6 9 13 1 27 58 74 84 68 4 -1 14 4 22 10 10 8 14 8 14 0 0 -6 9 -3 20 7 12 9
24 17 28 18 4 0 20 6 35 12 16 7 34 12 40 12 7 0 18 9 25 20 7 12 17 18 22 15
6 -3 10 -1 10 6 0 7 3 10 6 6 4 -3 13 0 21 8 16 17 19 17 47 6z m-1621 -50
c31 -15 54 -31 50 -36 -5 -4 -3 -5 3 -2 7 4 28 0 48 -8 20 -9 41 -13 46 -10 6
4 10 1 10 -5 0 -7 7 -10 15 -6 8 3 15 1 15 -4 0 -5 16 -12 35 -16 19 -3 32
-10 29 -15 -3 -5 2 -9 11 -9 9 0 13 -4 10 -10 -3 -5 -1 -10 6 -10 6 0 9 -8 6
-20 -3 -10 0 -18 5 -17 9 2 17 -18 20 -50 1 -7 6 -13 11 -13 5 0 7 -13 5 -30
-4 -25 -2 -28 11 -17 10 8 13 8 8 0 -4 -6 -1 -18 7 -26 8 -8 12 -17 9 -21 -3
-3 2 -8 11 -12 9 -3 16 -10 16 -16 0 -5 7 -16 16 -25 8 -9 13 -22 10 -30 -4
-9 1 -17 14 -20 20 -5 27 -38 12 -58 -6 -8 -44 -11 -100 -6 -7 1 -10 5 -7 11
3 6 -1 7 -10 4 -8 -4 -23 0 -32 7 -12 10 -15 10 -9 2 10 -18 -5 -16 -32 3 -12
8 -22 13 -22 9 0 -3 -13 1 -30 10 -16 9 -30 20 -30 26 0 6 -4 8 -9 4 -5 -3
-16 2 -24 10 -9 8 -19 15 -24 15 -4 0 -34 25 -66 55 -32 30 -54 55 -51 55 4 0
-5 11 -19 24 -14 13 -23 27 -20 30 4 3 -1 14 -9 23 -9 10 -22 38 -29 63 -7 25
-16 50 -20 55 -4 6 -9 29 -13 52 -4 35 -2 45 15 57 24 16 21 17 102 -23z m657
-114 c0 9 7 10 25 3 14 -5 25 -6 25 -2 0 10 182 8 199 -2 7 -4 15 -6 18 -2 8
8 32 -19 30 -35 -2 -8 -6 -20 -11 -27 -4 -7 -5 -16 -2 -19 3 -3 -2 -13 -12
-22 -10 -9 -25 -32 -35 -51 -9 -19 -17 -31 -17 -27 0 12 -30 -20 -30 -32 0 -5
-9 -13 -21 -16 -11 -4 -18 -9 -15 -13 3 -3 -4 -10 -17 -17 -29 -15 -74 0 -83
27 -3 11 -8 17 -11 14 -6 -5 -33 18 -33 29 0 3 -10 17 -22 30 -43 45 -49 55
-42 68 4 6 4 9 -1 5 -15 -14 -32 12 -29 44 5 37 5 37 34 43 12 2 25 7 28 10 3
3 9 0 14 -7 6 -10 8 -10 8 -1z"/>
<path d="M1565 1231 c-3 -5 -2 -12 3 -15 5 -3 9 1 9 9 0 17 -3 19 -12 6z"/>
<path d="M2170 980 c0 -5 5 -10 11 -10 5 0 7 5 4 10 -3 6 -8 10 -11 10 -2 0
-4 -4 -4 -10z"/>
<path d="M1170 770 c-6 -11 -8 -20 -6 -20 3 0 10 9 16 20 6 11 8 20 6 20 -3 0
-10 -9 -16 -20z"/>
</g>
</svg>
